<?xml version="1.0" standalone="no"?>
<!DOCTYPE svg PUBLIC "-//W3C//DTD SVG 20010904//EN"
 "http://www.w3.org/TR/2001/REC-SVG-20010904/DTD/svg10.dtd">
<svg version="1.0" xmlns="http://www.w3.org/2000/svg"
 width="1792.000000pt" height="1792.000000pt" viewBox="0 0 1792.000000 1792.000000"
 preserveAspectRatio="xMidYMid meet">
<metadata>
Created by potrace 1.14, written by Peter Selinger 2001-2017
</metadata>
<g transform="translate(0.000000,1792.000000) scale(0.100000,-0.100000)"
fill="#000000" stroke="none">
<path d="M3390 13548 c-47 -10 -91 -19 -97 -20 -7 -1 -13 -5 -13 -10 0 -5 -4
-6 -10 -3 -5 3 -16 3 -22 -2 -7 -4 -15 -8 -18 -9 -38 -7 -220 -103 -220 -116
0 -4 -5 -8 -11 -8 -7 0 -41 -26 -78 -57 -62 -55 -79 -72 -130 -133 -11 -14
-26 -31 -32 -38 -30 -35 -113 -185 -124 -224 -2 -5 -4 -10 -5 -13 -1 -3 -3 -8
-4 -12 -1 -5 -4 -12 -8 -18 -3 -5 -15 -49 -27 -96 -23 -90 -30 -169 -30 -304
0 -116 -2 -189 -4 -192 -2 -1 -378 -4 -837 -6 -459 -2 -848 -6 -865 -11 -16
-4 -57 -14 -90 -23 -33 -9 -66 -16 -72 -16 -7 0 -13 -4 -13 -8 0 -4 -16 -10
-35 -13 -19 -4 -35 -11 -35 -16 0 -4 -14 -11 -30 -15 -17 -4 -30 -11 -30 -16
0 -6 -4 -8 -9 -4 -5 3 -15 -1 -23 -8 -7 -7 -38 -28 -68 -47 -30 -19 -67 -47
-82 -62 -16 -16 -31 -28 -33 -28 -10 0 -100 -100 -135 -150 -13 -19 -27 -37
-30 -40 -12 -11 -91 -160 -85 -160 3 0 -4 -16 -16 -36 -11 -20 -18 -39 -15
-41 3 -3 0 -15 -6 -27 -7 -11 -13 -28 -15 -36 -1 -8 -9 -49 -17 -90 -13 -65
-15 -388 -13 -2500 2 -1334 5 -2436 9 -2450 3 -14 9 -40 12 -58 15 -78 98
-282 118 -290 4 -2 8 -8 8 -14 0 -20 99 -145 167 -209 101 -96 223 -175 328
-213 28 -9 59 -21 70 -26 30 -13 163 -40 225 -45 30 -2 407 -4 837 -5 l783 0
0 -137 c0 -76 2 -167 5 -203 6 -79 33 -210 47 -228 6 -6 8 -12 5 -12 -12 0 71
-182 85 -188 4 -2 8 -8 8 -14 0 -20 100 -145 168 -209 71 -68 155 -130 232
-170 60 -31 150 -68 150 -62 0 3 7 0 15 -7 9 -7 18 -10 22 -7 3 4 14 2 25 -4
20 -11 39 -16 93 -25 17 -3 432 -7 922 -9 701 -2 904 0 948 10 30 7 56 13 58
13 7 0 66 15 87 22 49 16 60 19 65 20 12 0 180 93 183 101 2 5 8 9 13 9 41 0
289 257 289 299 0 5 4 11 8 13 19 8 110 202 116 248 1 8 5 26 9 40 7 26 13 56
24 125 3 22 7 518 7 1103 0 1061 0 1062 21 1063 11 1 1277 2 2812 3 1856 1
2794 -2 2795 -9 0 -5 2 -487 4 -1070 1 -583 4 -1076 7 -1095 8 -54 17 -103 22
-110 2 -4 7 -22 10 -40 5 -31 28 -91 61 -165 19 -43 84 -146 119 -190 66 -83
209 -215 233 -215 6 0 12 -4 14 -9 2 -4 37 -26 79 -48 103 -55 234 -99 307
-105 17 -1 32 -5 32 -9 0 -10 1763 -8 1817 2 26 5 58 12 71 14 12 3 33 7 47
10 14 3 51 15 83 27 31 12 59 22 62 23 3 0 33 14 65 32 134 71 256 173 339
282 47 62 117 175 120 194 1 7 7 22 14 34 7 12 12 29 12 37 0 9 4 16 9 16 7 0
13 20 42 160 14 62 18 131 19 298 l1 142 772 1 c425 0 801 2 837 4 60 4 224
35 238 45 1 2 7 4 12 5 6 1 12 4 15 5 3 1 8 3 13 5 51 14 222 104 222 117 0 4
5 8 11 8 13 0 131 100 165 140 12 14 30 35 40 47 11 11 26 31 34 43 8 12 23
32 32 45 29 38 95 176 117 245 53 165 50 27 48 2640 -2 1334 -5 2436 -9 2450
-3 14 -9 40 -12 58 -15 78 -98 282 -118 290 -4 2 -8 8 -8 14 0 10 -54 88 -95
137 -43 52 -177 171 -192 171 -6 0 -13 4 -15 8 -4 10 -123 83 -141 86 -12 3
-22 7 -99 39 -44 19 -172 45 -248 51 -30 3 -407 5 -838 6 l-782 0 0 123 c0
126 -6 249 -14 302 -35 210 -148 422 -300 564 -28 25 -60 56 -73 69 -13 12
-26 22 -28 22 -2 0 -36 20 -74 45 -38 25 -72 45 -75 45 -3 0 -29 11 -58 24
-54 25 -107 43 -147 51 -13 2 -31 7 -41 10 -50 16 -158 18 -990 19 -827 1
-900 0 -965 -17 -38 -10 -80 -19 -93 -22 -12 -2 -28 -7 -35 -12 -6 -4 -17 -8
-23 -9 -27 -4 -136 -62 -211 -110 -97 -64 -253 -215 -253 -244 0 -6 -3 -10 -8
-10 -7 0 -61 -85 -94 -149 -39 -76 -83 -227 -94 -326 -4 -33 -7 -535 -8 -1115
l-1 -1054 -2790 -1 c-1534 0 -2801 1 -2815 3 l-25 4 -2 1056 c-1 931 -4 1118
-17 1182 -14 69 -58 204 -68 208 -5 2 -8 9 -8 16 0 12 -9 29 -66 131 -9 16
-22 34 -28 41 -6 7 -22 27 -36 45 -36 47 -118 129 -165 164 -22 17 -46 36 -53
43 -7 6 -17 12 -22 12 -5 0 -15 6 -22 13 -31 31 -242 122 -259 112 -5 -4 -9
-1 -9 4 0 6 -3 10 -7 9 -5 -1 -21 1 -38 5 -16 4 -46 10 -65 14 -19 3 -433 7
-920 8 -831 1 -890 0 -970 -17z m1722 -1007 c6 -1 9 -112 9 -296 0 -11 0 -72
0 -135 1 -140 1 -115 0 -235 0 -55 0 -109 0 -120 0 -11 0 -67 -1 -123 0 -57 3
-108 6 -113 3 -5 2 -9 -3 -9 -7 0 -8 -45 -3 -205 0 -22 1 -89 1 -148 -1 -60 2
-113 5 -118 3 -5 2 -9 -3 -9 -7 0 -8 -59 -3 -200 1 -19 1 -83 0 -142 0 -59 0
-111 1 -115 1 -5 1 -12 0 -18 -2 -8 -1 -201 1 -250 0 -5 -1 -26 -2 -45 -1 -19
-2 -100 -1 -180 0 -80 0 -152 0 -160 0 -8 0 -44 0 -80 0 -36 0 -72 0 -80 0 -8
0 -80 0 -160 0 -80 0 -152 0 -160 0 -8 0 -44 0 -80 0 -36 0 -72 0 -80 0 -8 0
-80 0 -160 0 -80 0 -152 0 -160 0 -8 0 -44 0 -80 0 -36 0 -72 0 -80 0 -8 0
-80 0 -160 0 -80 0 -152 0 -160 0 -8 0 -44 0 -80 0 -36 0 -72 0 -80 0 -8 0
-109 0 -225 1 -115 1 -295 2 -400 0 -104 0 -194 0 -200 0 -5 0 -48 0 -95 0
-47 0 -92 0 -100 0 -8 0 -44 0 -80 0 -36 0 -73 0 -82 0 -19 0 -157 0 -183 0
-8 0 -40 0 -70 0 -30 0 -62 0 -70 0 -8 0 -49 0 -90 0 -41 0 -82 0 -90 0 -8 0
-40 0 -70 0 -30 0 -62 0 -70 0 -8 0 -49 0 -90 0 -41 0 -82 0 -90 0 -8 0 -40 0
-70 0 -30 0 -62 0 -70 1 -187 0 -236 -7 -247 -3 -4 -2 -8 3 -8 8 0 7 -125 -2
-147 -2 -7 -1 -13 3 -13 8 0 6 -126 -3 -147 -2 -7 -1 -13 3 -13 4 0 6 -24 5
-52 -2 -29 -3 -79 -3 -110 -1 -32 -4 -58 -8 -59 -4 -1 -349 -2 -767 -2 l-761
-2 0 3580 c0 1969 3 3582 7 3585 5 4 1492 5 1521 1z m9220 -6 c0 -5 2 -1618 2
-3582 l2 -3573 -21 -1 c-11 -1 -356 -2 -767 -3 l-747 -1 -1 85 c-1 47 -1 90
-2 95 0 6 1 21 2 35 1 14 2 90 2 170 -1 80 -1 152 -1 160 0 8 0 44 0 80 0 36
0 72 0 80 0 8 0 80 0 160 0 80 0 152 0 160 0 8 0 44 0 80 0 36 0 72 0 80 0 8
0 80 0 160 0 80 0 152 0 160 0 8 0 44 0 80 0 36 0 72 0 80 0 8 0 110 0 225 -1
116 -1 311 -2 435 0 124 0 230 -1 235 0 6 1 26 2 45 1 19 2 100 1 180 0 80 0
152 0 160 0 8 0 44 0 80 0 36 0 72 0 80 0 8 0 80 0 160 0 80 0 152 0 160 0 8
0 44 0 80 0 36 0 72 0 80 0 8 0 80 0 160 0 80 0 152 0 160 0 8 0 44 0 80 0 36
0 72 0 80 0 8 0 80 0 160 0 80 0 152 0 160 0 8 0 44 0 80 0 36 0 72 0 80 0 17
0 295 0 325 0 11 0 49 0 85 0 74 0 63 0 155 -1 39 0 109 2 158 1 48 -2 87 -6
87 -5 0 -6 4 -3 9 4 5 6 58 6 118 -1 59 -1 126 0 148 5 156 4 205 -3 205 -5 0
-6 4 -3 9 4 5 6 58 6 118 -1 59 -1 126 0 148 5 156 4 205 -3 205 -5 0 -6 4 -3
9 5 7 8 157 4 231 0 8 1 33 2 55 1 22 1 87 1 145 -1 58 0 144 1 193 2 48 1 87
-2 87 -3 0 -4 30 -2 67 l3 68 765 0 c502 0 765 -3 766 -10z m-11775 -1395 c1
-69 2 -138 3 -155 1 -16 1 -82 0 -147 0 -64 0 -120 1 -125 1 -4 1 -12 0 -18
-1 -5 -2 -53 -2 -105 1 -52 1 -183 1 -290 -1 -107 0 -244 0 -305 1 -60 1 -114
1 -120 0 -5 0 -75 0 -155 0 -80 0 -152 0 -160 0 -8 0 -80 0 -160 0 -80 0 -152
0 -160 0 -8 0 -80 0 -160 0 -80 0 -152 0 -160 0 -8 0 -80 0 -160 0 -80 0 -152
0 -160 0 -8 0 -80 0 -160 0 -80 0 -152 0 -160 0 -8 0 -80 0 -160 0 -80 0 -152
0 -160 0 -8 0 -127 0 -265 0 -137 0 -257 1 -265 0 -8 -1 -31 -2 -50 -1 -19 -2
-111 -1 -205 0 -93 -1 -174 -1 -180 0 -5 1 -21 2 -35 1 -14 1 -73 0 -132 0
-58 0 -110 1 -115 1 -4 1 -19 0 -33 l-1 -25 -765 0 c-421 0 -766 2 -766 5 -1
3 -3 1040 -3 2305 l-2 2300 766 0 765 -1 2 -124z m14337 110 c3 -13 1 -4578
-3 -4590 -2 -7 -1519 -6 -1526 1 -3 4 -5 44 -5 90 0 70 0 132 -1 334 0 6 0 75
0 155 0 80 0 154 0 165 0 11 0 108 1 216 1 107 0 199 -1 205 -1 5 -1 11 0 14
6 19 4 170 -2 170 -5 0 -6 4 -3 9 4 5 6 58 6 118 -1 59 -1 126 0 148 5 156 4
205 -3 205 -5 0 -6 4 -3 9 4 5 6 58 6 118 -1 59 -1 126 0 148 5 156 4 205 -3
205 -5 0 -6 4 -3 9 4 5 6 58 6 118 -1 59 -1 126 0 148 5 156 4 205 -3 205 -5
0 -6 4 -3 9 4 5 6 58 6 118 -1 59 -1 126 0 148 5 156 4 205 -3 205 -5 0 -6 4
-3 9 4 5 6 58 6 118 -1 59 -1 126 0 148 5 156 4 205 -3 205 -5 0 -6 4 -3 9 4
5 6 56 6 113 -1 57 -1 112 -1 123 0 11 0 67 0 125 -1 58 0 112 0 120 1 52 2
218 0 226 -1 5 -1 38 0 74 l1 65 765 0 c672 0 766 -2 769 -15z m-5183 -1885
c1 -385 -1 -909 -5 -913 -4 -3 -5388 -6 -5537 -3 l-25 1 0 510 0 509 40 3 c23
2 1275 3 2783 3 l2743 0 1 -110z"/>
</g>
</svg>
